<?xml version="1.0" encoding="UTF-8"?>
<svg width="172px" height="10px" viewBox="0 0 172 10" version="1.1" xmlns="http://www.w3.org/2000/svg" xmlns:xlink="http://www.w3.org/1999/xlink">
    <!-- Generator: Sketch 57.1 (83088) - https://sketch.com -->
    <title>JAIWANAPHOTOGRAPHY</title>
    <desc>Created with Sketch.</desc>
    <g id="Page-1" stroke="none" stroke-width="1" fill="none" fill-rule="evenodd">
        <path d="M4.453125,0.41015625 L7.11328125,0.41015625 L7.11328125,5.08007812 C7.11328125,6.06055178 7.02636806,6.80663807 6.85253906,7.31835938 C6.67871007,7.83008068 6.32910419,8.2636701 5.80371094,8.61914062 C5.27831769,8.97461115 4.60547285,9.15234375 3.78515625,9.15234375 C2.91796441,9.15234375 2.24609613,9.03515742 1.76953125,8.80078125 C1.29296637,8.56640508 0.924805986,8.22363507 0.665039062,7.77246094 C0.405272139,7.32128681 0.251953359,6.7636752 0.205078125,6.09960938 L2.7421875,5.75390625 C2.74609377,6.13281439 2.77929656,6.41406158 2.84179688,6.59765625 C2.90429719,6.78125092 3.00976488,6.92968693 3.15820312,7.04296875 C3.25976613,7.11718787 3.40429594,7.15429688 3.59179688,7.15429688 C3.88867336,7.15429688 4.10644462,7.04394642 4.24511719,6.82324219 C4.38378976,6.60253796 4.453125,6.23047137 4.453125,5.70703125 L4.453125,0.41015625 Z M13.9974219,7.58203125 L10.9739844,7.58203125 L10.5579687,9 L7.84507812,9 L11.0735937,0.41015625 L13.968125,0.41015625 L17.1966406,9 L14.4192969,9 L13.9974219,7.58203125 Z M13.4407812,5.72460938 L12.4915625,2.63671875 L11.5482031,5.72460938 L13.4407812,5.72460938 Z M18.2917188,0.41015625 L20.951875,0.41015625 L20.951875,9 L18.2917188,9 L18.2917188,0.41015625 Z M22.1114063,0.41015625 L24.6309375,0.41015625 L25.5391406,5.20898438 L26.8633594,0.41015625 L29.3770313,0.41015625 L30.7071094,5.20898438 L31.6153125,0.41015625 L34.123125,0.41015625 L32.2305469,9 L29.6289844,9 L28.123125,3.59179688 L26.623125,9 L24.0215625,9 L22.1114063,0.41015625 Z M40.4213281,7.58203125 L37.3978906,7.58203125 L36.981875,9 L34.2689844,9 L37.4975,0.41015625 L40.3920313,0.41015625 L43.6205469,9 L40.8432031,9 L40.4213281,7.58203125 Z M39.8646875,5.72460938 L38.9154688,2.63671875 L37.9721094,5.72460938 L39.8646875,5.72460938 Z M44.6277344,0.41015625 L47.10625,0.41015625 L50.340625,5.16210938 L50.340625,0.41015625 L52.8425781,0.41015625 L52.8425781,9 L50.340625,9 L47.1238281,4.28320312 L47.1238281,9 L44.6277344,9 L44.6277344,0.41015625 Z M59.9142188,7.58203125 L56.8907813,7.58203125 L56.4747656,9 L53.761875,9 L56.9903906,0.41015625 L59.8849219,0.41015625 L63.1134375,9 L60.3360938,9 L59.9142188,7.58203125 Z M59.3575781,5.72460938 L58.4083594,2.63671875 L57.465,5.72460938 L59.3575781,5.72460938 Z M68.2332813,0.41015625 L72.6453906,0.41015625 C73.6063329,0.41015625 74.3260523,0.63866959 74.8045703,1.09570312 C75.2830883,1.55273666 75.5223438,2.20312078 75.5223438,3.046875 C75.5223438,3.91406684 75.2616042,4.59179443 74.7401172,5.08007812 C74.2186302,5.56836182 73.4227397,5.8125 72.3524219,5.8125 L70.8992969,5.8125 L70.8992969,9 L68.2332813,9 L68.2332813,0.41015625 Z M70.8992969,4.07226562 L71.5496875,4.07226562 C72.0614088,4.07226562 72.4207802,3.98339933 72.6278125,3.80566406 C72.8348448,3.6279288 72.9383594,3.40039201 72.9383594,3.12304688 C72.9383594,2.85351428 72.8485165,2.62500094 72.6688281,2.4375 C72.4891397,2.24999906 72.1512525,2.15625 71.6551563,2.15625 L70.8992969,2.15625 L70.8992969,4.07226562 Z M77.0627344,0.41015625 L79.7170312,0.41015625 L79.7170312,3.41601562 L82.6174219,3.41601562 L82.6174219,0.41015625 L85.2834375,0.41015625 L85.2834375,9 L82.6174219,9 L82.6174219,5.52539062 L79.7170312,5.52539062 L79.7170312,9 L77.0627344,9 L77.0627344,0.41015625 Z M86.853125,4.7109375 C86.853125,3.30858674 87.2437461,2.21680078 88.025,1.43554688 C88.8062539,0.654292969 89.8941337,0.263671875 91.2886719,0.263671875 C92.7183665,0.263671875 93.819918,0.6474571 94.5933594,1.41503906 C95.3668007,2.18262103 95.7535156,3.25780559 95.7535156,4.640625 C95.7535156,5.64453627 95.584572,6.46777022 95.2466797,7.11035156 C94.9087874,7.7529329 94.420511,8.2529279 93.7818359,8.61035156 C93.1431609,8.96777522 92.3472704,9.14648438 91.3941406,9.14648438 C90.4253858,9.14648438 89.623636,8.99218904 88.9888672,8.68359375 C88.3540984,8.37499846 87.8394551,7.88672209 87.4449219,7.21875 C87.0503887,6.55077791 86.853125,5.71484877 86.853125,4.7109375 Z M89.5074219,4.72265625 C89.5074219,5.58984809 89.6685531,6.21288873 89.9908203,6.59179688 C90.3130875,6.97070502 90.7515597,7.16015625 91.30625,7.16015625 C91.8765654,7.16015625 92.3179672,6.97461123 92.6304687,6.60351562 C92.9429703,6.23242002 93.0992187,5.56641105 93.0992187,4.60546875 C93.0992187,3.79687096 92.9361344,3.20605655 92.6099609,2.83300781 C92.2837874,2.45995907 91.841409,2.2734375 91.2828125,2.2734375 C90.7476536,2.2734375 90.3179704,2.46288873 89.99375,2.84179688 C89.6695296,3.22070502 89.5074219,3.84765187 89.5074219,4.72265625 Z M96.4091406,0.41015625 L104.4775,0.41015625 L104.4775,2.53125 L101.770469,2.53125 L101.770469,9 L99.1161719,9 L99.1161719,2.53125 L96.4091406,2.53125 L96.4091406,0.41015625 Z M105.074531,4.7109375 C105.074531,3.30858674 105.465152,2.21680078 106.246406,1.43554688 C107.02766,0.654292969 108.11554,0.263671875 109.510078,0.263671875 C110.939773,0.263671875 112.041324,0.6474571 112.814766,1.41503906 C113.588207,2.18262103 113.974922,3.25780559 113.974922,4.640625 C113.974922,5.64453627 113.805978,6.46777022 113.468086,7.11035156 C113.130194,7.7529329 112.641917,8.2529279 112.003242,8.61035156 C111.364567,8.96777522 110.568677,9.14648438 109.615547,9.14648438 C108.646792,9.14648438 107.845042,8.99218904 107.210273,8.68359375 C106.575505,8.37499846 106.060861,7.88672209 105.666328,7.21875 C105.271795,6.55077791 105.074531,5.71484877 105.074531,4.7109375 Z M107.728828,4.72265625 C107.728828,5.58984809 107.889959,6.21288873 108.212227,6.59179688 C108.534494,6.97070502 108.972966,7.16015625 109.527656,7.16015625 C110.097972,7.16015625 110.539373,6.97461123 110.851875,6.60351562 C111.164377,6.23242002 111.320625,5.56641105 111.320625,4.60546875 C111.320625,3.79687096 111.157541,3.20605655 110.831367,2.83300781 C110.505194,2.45995907 110.062815,2.2734375 109.504219,2.2734375 C108.96906,2.2734375 108.539377,2.46288873 108.215156,2.84179688 C107.890936,3.22070502 107.728828,3.84765187 107.728828,4.72265625 Z M119.862969,5.88867188 L119.862969,4.1015625 L123.964531,4.1015625 L123.964531,7.76367188 C123.179371,8.2988308 122.485042,8.66308497 121.881523,8.85644531 C121.278005,9.04980565 120.562192,9.14648438 119.734062,9.14648438 C118.714526,9.14648438 117.88348,8.97265799 117.240898,8.625 C116.598317,8.27734201 116.100275,7.75976906 115.746758,7.07226562 C115.39324,6.38476219 115.216484,5.59570758 115.216484,4.70507812 C115.216484,3.76757344 115.409842,2.9521519 115.796562,2.25878906 C116.183283,1.56542622 116.749684,1.0390643 117.495781,0.6796875 C118.077815,0.402342363 118.861011,0.263671875 119.845391,0.263671875 C120.794614,0.263671875 121.504568,0.349608516 121.975273,0.521484375 C122.445979,0.693360234 122.8366,0.959959131 123.147148,1.32128906 C123.457697,1.68261899 123.691093,2.14062223 123.847344,2.6953125 L121.286797,3.15234375 C121.181328,2.82812338 121.002618,2.58007898 120.750664,2.40820312 C120.49871,2.23632727 120.177424,2.15039062 119.786797,2.15039062 C119.204763,2.15039062 118.7409,2.35253704 118.395195,2.75683594 C118.04949,3.16113483 117.876641,3.80077687 117.876641,4.67578125 C117.876641,5.6054734 118.051444,6.26952926 118.401055,6.66796875 C118.750666,7.06640824 119.237966,7.265625 119.862969,7.265625 C120.159845,7.265625 120.443046,7.22265668 120.712578,7.13671875 C120.982111,7.05078082 121.290701,6.90429791 121.638359,6.69726563 L121.638359,5.88867188 L119.862969,5.88867188 Z M125.715859,9 L125.715859,0.41015625 L130.139688,0.41015625 C130.960004,0.41015625 131.586951,0.480468047 132.020547,0.62109375 C132.454143,0.761719453 132.803749,1.02245903 133.069375,1.40332031 C133.335001,1.78418159 133.467813,2.24804414 133.467813,2.79492188 C133.467813,3.27148676 133.366251,3.68261546 133.163125,4.02832031 C132.959999,4.37402517 132.680705,4.6542958 132.325234,4.86914062 C132.098671,5.00586006 131.788127,5.11914018 131.393594,5.20898438 C131.710002,5.31445365 131.940468,5.41992135 132.085,5.52539062 C132.182657,5.59570348 132.324257,5.7460926 132.509805,5.9765625 C132.695352,6.2070324 132.819375,6.384765 132.881875,6.50976562 L134.165078,9 L131.165078,9 L129.747109,6.375 C129.567421,6.03515455 129.407266,5.81445363 129.266641,5.71289062 C129.075233,5.58007746 128.858439,5.51367188 128.61625,5.51367188 L128.381875,5.51367188 L128.381875,9 L125.715859,9 Z M128.381875,3.890625 L129.501016,3.890625 C129.62211,3.890625 129.856483,3.85156289 130.204141,3.7734375 C130.379923,3.73828107 130.523476,3.64843822 130.634805,3.50390625 C130.746133,3.35937428 130.801797,3.19336031 130.801797,3.00585938 C130.801797,2.72851424 130.713907,2.51562574 130.538125,2.3671875 C130.362343,2.21874926 130.032268,2.14453125 129.547891,2.14453125 L128.381875,2.14453125 L128.381875,3.890625 Z M140.439844,7.58203125 L137.416406,7.58203125 L137.000391,9 L134.2875,9 L137.516016,0.41015625 L140.410547,0.41015625 L143.639063,9 L140.861719,9 L140.439844,7.58203125 Z M139.883203,5.72460938 L138.933984,2.63671875 L137.990625,5.72460938 L139.883203,5.72460938 Z M144.616953,0.41015625 L149.029063,0.41015625 C149.990005,0.41015625 150.709724,0.63866959 151.188242,1.09570312 C151.66676,1.55273666 151.906016,2.20312078 151.906016,3.046875 C151.906016,3.91406684 151.645276,4.59179443 151.123789,5.08007812 C150.602302,5.56836182 149.806412,5.8125 148.736094,5.8125 L147.282969,5.8125 L147.282969,9 L144.616953,9 L144.616953,0.41015625 Z M147.282969,4.07226562 L147.933359,4.07226562 C148.445081,4.07226562 148.804452,3.98339933 149.011484,3.80566406 C149.218517,3.6279288 149.322031,3.40039201 149.322031,3.12304688 C149.322031,2.85351428 149.232188,2.62500094 149.0525,2.4375 C148.872812,2.24999906 148.534924,2.15625 148.038828,2.15625 L147.282969,2.15625 L147.282969,4.07226562 Z M153.446406,0.41015625 L156.100703,0.41015625 L156.100703,3.41601562 L159.001094,3.41601562 L159.001094,0.41015625 L161.667109,0.41015625 L161.667109,9 L159.001094,9 L159.001094,5.52539062 L156.100703,5.52539062 L156.100703,9 L153.446406,9 L153.446406,0.41015625 Z M162.703594,0.41015625 L165.650859,0.41015625 L167.385234,3.31054688 L169.119609,0.41015625 L172.049297,0.41015625 L168.709453,5.40234375 L168.709453,9 L166.049297,9 L166.049297,5.40234375 L162.703594,0.41015625 Z" id="JAIWANAPHOTOGRAPHY" fill="#262626" fill-rule="nonzero"></path>
    </g>
</svg>